<?xml version="1.0" encoding="utf-8"?>
<!-- Generator: Adobe Illustrator 16.0.0, SVG Export Plug-In . SVG Version: 6.00 Build 0)  -->
<!DOCTYPE svg PUBLIC "-//W3C//DTD SVG 1.1//EN" "http://www.w3.org/Graphics/SVG/1.1/DTD/svg11.dtd">
<svg version="1.1" id="レイヤー_1" xmlns="http://www.w3.org/2000/svg" xmlns:xlink="http://www.w3.org/1999/xlink" x="0px"
	 y="0px" width="80px" height="80px" viewBox="10 10 80 80" enable-background="new 10 10 80 80" xml:space="preserve">
<path fill="#FFFFFF" d="M50,10c-22.091,0-40,17.909-40,40c0,22.092,17.909,40,40,40c22.092,0,40-17.908,40-40
	C90,27.909,72.092,10,50,10z M71.102,71.104c-1.429,1.424-3.735,1.424-5.162-0.002L50,55.162L34.058,71.104
	c-1.427,1.424-3.735,1.424-5.162,0c-1.423-1.426-1.424-3.736,0-5.162L44.838,50L28.899,34.06c-1.427-1.427-1.426-3.738,0.001-5.162
	c0.711-0.715,1.644-1.07,2.579-1.07c0.934,0,1.866,0.356,2.581,1.07l15.941,15.938l15.94-15.938c1.427-1.426,3.736-1.426,5.158,0
	c0.715,0.711,1.069,1.646,1.069,2.58c0,0.935-0.354,1.869-1.069,2.582L55.161,50l15.94,15.941
	C72.527,67.366,72.527,69.675,71.102,71.104z"/>
</svg>
