<?xml version="1.0" encoding="utf-8"?>
<!-- Generator: Adobe Illustrator 16.0.0, SVG Export Plug-In . SVG Version: 6.00 Build 0)  -->
<!DOCTYPE svg PUBLIC "-//W3C//DTD SVG 1.1//EN" "http://www.w3.org/Graphics/SVG/1.1/DTD/svg11.dtd">
<svg version="1.1" xmlns="http://www.w3.org/2000/svg" xmlns:xlink="http://www.w3.org/1999/xlink" x="0px" y="0px" width="30px"
	 height="30px" viewBox="0 0 30 30" enable-background="new 0 0 30 30" xml:space="preserve">
<path fill="#8F9491" d="M22.603,7.397c-1.865-1.862-4.897-1.862-6.759,0l-5.416,5.418c-0.565,0.564-0.876,1.313-0.876,2.114
	c0,0.798,0.312,1.547,0.874,2.112c0.582,0.58,1.348,0.871,2.113,0.871c0.765,0,1.528-0.288,2.111-0.871l2.534-2.534
	c0.468-0.472,0.7-1.08,0.7-1.689c0-0.611-0.232-1.222-0.7-1.688l-4.224,4.223c-0.23,0.233-0.61,0.233-0.846-0.003
	c-0.151-0.151-0.175-0.328-0.175-0.42c0-0.094,0.023-0.271,0.175-0.423l5.417-5.42c0.93-0.931,2.447-0.931,3.381,0
	c0.931,0.931,0.931,2.447,0,3.378l-5.42,5.42l-3.028,3.028c-0.93,0.931-2.447,0.931-3.378,0c-0.932-0.931-0.932-2.447,0-3.378
	L9.2,17.42c-0.539-0.717-0.838-1.623-0.838-2.538l-0.964,0.964c-1.864,1.862-1.864,4.896,0,6.757C8.328,23.533,9.553,24,10.776,24
	c1.223,0,2.447-0.467,3.378-1.397l8.448-8.448C24.466,12.292,24.466,9.262,22.603,7.397z"/>
</svg>
