<?xml version="1.0" encoding="utf-8"?>
<!-- Generator: Adobe Illustrator 16.0.0, SVG Export Plug-In . SVG Version: 6.00 Build 0)  -->
<!DOCTYPE svg PUBLIC "-//W3C//DTD SVG 1.1//EN" "http://www.w3.org/Graphics/SVG/1.1/DTD/svg11.dtd">
<svg version="1.1" xmlns="http://www.w3.org/2000/svg" xmlns:xlink="http://www.w3.org/1999/xlink" x="0px" y="0px" width="30px"
	 height="30px" viewBox="0 0 30 30" enable-background="new 0 0 30 30" xml:space="preserve">
<path fill="#FFFFFF" d="M22.069,17.575l-0.994,0.994l-3.581-3.604l3.581-3.604l0.994,0.994l-1.907,1.907H24V6h-6.625
	c-0.621,0-1.125,0.806-1.125,1.8v14.4c0,0.993,0.504,1.8,1.125,1.8H24v-8.332h-3.838L22.069,17.575z"/>
<path fill="#FFFFFF" d="M12.625,6H6v8.262h3.838l-1.907-1.907l0.994-0.994l3.581,3.604l-3.581,3.604l-0.994-0.994l1.907-1.907H6V24
	h6.625c0.621,0,1.125-0.807,1.125-1.8V7.8C13.75,6.806,13.246,6,12.625,6z"/>
</svg>
