<?xml version="1.0" encoding="utf-8"?>
<!-- Generator: Adobe Illustrator 16.0.0, SVG Export Plug-In . SVG Version: 6.00 Build 0)  -->
<!DOCTYPE svg PUBLIC "-//W3C//DTD SVG 1.1//EN" "http://www.w3.org/Graphics/SVG/1.1/DTD/svg11.dtd">
<svg version="1.1" xmlns="http://www.w3.org/2000/svg" xmlns:xlink="http://www.w3.org/1999/xlink" x="0px" y="0px" width="30px"
	 height="30px" viewBox="0 0 30 30" enable-background="new 0 0 30 30" xml:space="preserve">
<path fill="#8F9491" d="M18.117,6h-7.034c-0.338,0-0.614,0.276-0.614,0.615v2.662H7.807c-0.337,0-0.614,0.277-0.614,0.615v12.492
	c0,0.338,0.277,0.614,0.614,0.614h10.342c0.337,0,0.614-0.276,0.614-0.614v-2.765h2.56c0.338,0,0.614-0.276,0.614-0.614V9.84
	c0-0.164-0.062-0.318-0.174-0.43l-3.205-3.225C18.445,6.062,18.281,6,18.117,6z M17.534,21.769H8.421V10.505h2.048v8.499
	c0,0.338,0.276,0.614,0.614,0.614h6.451V21.769L17.534,21.769z M11.697,18.39V7.229h5.324v3.482c0,0.337,0.276,0.614,0.614,0.614
	h3.072v7.065H11.697z M20.708,10.096H18.25V7.618L20.708,10.096L20.708,10.096z"/>
<circle fill="#3498DB" cx="19.03" cy="20.223" r="3.777"/>
<path fill="#FFFFFF" d="M18.706,18.301l0.001,1.599l-1.599-0.001c-0.181,0.001-0.324,0.146-0.324,0.324
	c0,0.18,0.144,0.324,0.323,0.324h1.599v1.598c0.001,0.179,0.145,0.325,0.324,0.325c0.179,0,0.324-0.146,0.324-0.325v-1.598h1.598
	c0.179,0,0.325-0.145,0.325-0.324c0-0.179-0.146-0.323-0.325-0.324h-1.598v-1.598c0-0.18-0.146-0.324-0.324-0.324
	C18.851,17.977,18.707,18.121,18.706,18.301z"/>
</svg>
