<?xml version="1.0" encoding="utf-8"?>
<!-- Generator: Adobe Illustrator 16.0.0, SVG Export Plug-In . SVG Version: 6.00 Build 0)  -->
<!DOCTYPE svg PUBLIC "-//W3C//DTD SVG 1.1//EN" "http://www.w3.org/Graphics/SVG/1.1/DTD/svg11.dtd">
<svg version="1.1" xmlns="http://www.w3.org/2000/svg" xmlns:xlink="http://www.w3.org/1999/xlink" x="0px" y="0px" width="30px"
	 height="30px" viewBox="0 0 30 30" enable-background="new 0 0 30 30" xml:space="preserve">
<polygon fill="#8F9491" points="16.125,13.594 13.875,13.594 13.875,18.094 12.188,18.094 15,21.469 17.813,18.094 16.125,18.094 	
	"/>
<path fill="#8F9491" d="M21.518,13.15c-0.521-1.384-1.857-2.369-3.424-2.369c-0.36,0-0.709,0.052-1.039,0.149
	c-0.892-1.44-2.486-2.399-4.305-2.399c-2.758,0-5.003,2.207-5.062,4.952C6.679,14.067,6,15.159,6,16.406
	c0,1.863,1.512,3.375,3.375,3.375h2.531l-0.938-1.125H9.373c-1.239,0-2.248-1.008-2.248-2.25c0-1.065,0.741-1.958,1.736-2.191
	c-0.033-0.202-0.049-0.41-0.049-0.621c0-2.175,1.763-3.938,3.938-3.938c1.779,0,3.281,1.18,3.77,2.798
	c0.434-0.344,0.979-0.548,1.574-0.548c1.303,0,2.377,0.984,2.516,2.25h0.018c1.239,0,2.248,1.007,2.248,2.25
	c0,1.24-1.006,2.25-2.248,2.25h-1.596l-0.938,1.125h2.531c1.863,0,3.375-1.515,3.375-3.375C24,14.851,22.948,13.542,21.518,13.15z"
	/>
</svg>
