<?xml version="1.0" encoding="utf-8"?>
<!-- Generator: Adobe Illustrator 16.0.0, SVG Export Plug-In . SVG Version: 6.00 Build 0)  -->
<!DOCTYPE svg PUBLIC "-//W3C//DTD SVG 1.1//EN" "http://www.w3.org/Graphics/SVG/1.1/DTD/svg11.dtd">
<svg version="1.1" xmlns="http://www.w3.org/2000/svg" xmlns:xlink="http://www.w3.org/1999/xlink" x="0px" y="0px" width="30px"
	 height="30px" viewBox="0 0 30 30" enable-background="new 0 0 30 30" xml:space="preserve">
<polygon fill="#8F9491" points="17.456,22.1 12.698,23.371 13.044,22.1 7.644,22.1 7.644,7.901 18.415,7.901 18.415,14.084 
	20.059,12.441 20.059,6.114 6,6.114 6,23.887 20.059,23.887 20.059,19.574 			"/>
<polygon fill="#8F9491" points="14.644,19.416 13.9,22.158 16.658,21.43 			"/>
<polygon fill="#8F9491" points="21.644,12.055 15.07,18.629 15.085,18.643 17.43,20.984 17.444,20.984 24,14.416 			"/>
<path fill="#8F9491" d="M16.758,9.872H9.371c-0.228,0-0.43,0.187-0.43,0.43c0,0.228,0.188,0.43,0.43,0.43h7.387
	c0.228,0,0.43-0.188,0.43-0.43C17.188,10.07,16.985,9.872,16.758,9.872z"/>
<path fill="#8F9491" d="M16.758,12.485H9.371c-0.228,0-0.43,0.188-0.43,0.431c0,0.228,0.188,0.43,0.43,0.43h7.387
	c0.228,0,0.43-0.188,0.43-0.43C17.188,12.684,16.985,12.485,16.758,12.485z"/>
<path fill="#8F9491" d="M17.188,15.529c0-0.228-0.188-0.43-0.43-0.43H9.371c-0.228,0-0.43,0.188-0.43,0.43
	c0,0.229,0.188,0.43,0.43,0.43h7.387C16.985,15.955,17.188,15.758,17.188,15.529z"/>
</svg>
