<?xml version="1.0" encoding="utf-8"?>
<!-- Generator: Adobe Illustrator 16.0.0, SVG Export Plug-In . SVG Version: 6.00 Build 0)  -->
<!DOCTYPE svg PUBLIC "-//W3C//DTD SVG 1.1//EN" "http://www.w3.org/Graphics/SVG/1.1/DTD/svg11.dtd">
<svg version="1.1" xmlns="http://www.w3.org/2000/svg" xmlns:xlink="http://www.w3.org/1999/xlink" x="0px" y="0px" width="30px"
	 height="30px" viewBox="0 0 30 30" enable-background="new 0 0 30 30" xml:space="preserve">
<path fill="#8F9491" d="M23.212,22.441h-9.944l1.688-1.688l-5.524-5.524l-3.264,3.263c-0.224,0.224-0.224,0.587,0,0.811
	l3.139,3.14H9.131c-0.38,0-0.688,0.308-0.688,0.688s0.308,0.688,0.688,0.688h14.081c0.38,0,0.688-0.308,0.688-0.688
	S23.592,22.441,23.212,22.441z"/>
<path fill="#8F9491" d="M23.832,11.876C23.94,11.768,24,11.624,24,11.472c0-0.153-0.06-0.297-0.168-0.405l-4.715-4.715
	c-0.223-0.224-0.586-0.224-0.81,0l-7.904,7.904l5.524,5.524L23.832,11.876z"/>
</svg>
