<?xml version="1.0" encoding="utf-8"?>
<!-- Generator: Adobe Illustrator 16.0.0, SVG Export Plug-In . SVG Version: 6.00 Build 0)  -->
<!DOCTYPE svg PUBLIC "-//W3C//DTD SVG 1.1//EN" "http://www.w3.org/Graphics/SVG/1.1/DTD/svg11.dtd">
<svg version="1.1" xmlns="http://www.w3.org/2000/svg" xmlns:xlink="http://www.w3.org/1999/xlink" x="0px" y="0px" width="30px"
	 height="30px" viewBox="0 0 30 30" enable-background="new 0 0 30 30" xml:space="preserve">
<path fill="#8F9491" d="M22.269,15c0-1.122,0.69-2.008,1.732-2.617c-0.188-0.627-0.435-1.227-0.742-1.792
	c-1.164,0.307-2.11-0.152-2.903-0.944c-0.793-0.795-1.037-1.738-0.73-2.905C19.06,6.435,18.46,6.187,17.832,6
	C17.223,7.041,16.122,7.731,15,7.731c-1.123,0-2.222-0.691-2.833-1.731c-0.625,0.187-1.225,0.435-1.79,0.741
	c0.305,1.167,0.062,2.111-0.73,2.906c-0.794,0.794-1.74,1.251-2.906,0.946c-0.306,0.563-0.555,1.163-0.742,1.79
	C7.04,12.992,7.731,13.878,7.731,15s-0.691,2.223-1.732,2.831c0.188,0.627,0.437,1.227,0.742,1.792
	c1.167-0.305,2.111-0.062,2.906,0.732c0.792,0.793,1.035,1.738,0.73,2.904c0.565,0.306,1.165,0.555,1.792,0.74
	c0.609-1.039,1.708-1.73,2.831-1.73c1.122,0,2.223,0.691,2.832,1.73c0.628-0.188,1.228-0.435,1.793-0.74
	c-0.307-1.166-0.063-2.111,0.73-2.904c0.793-0.794,1.739-1.253,2.903-0.946c0.308-0.565,0.554-1.165,0.742-1.792
	C22.959,17.008,22.269,16.122,22.269,15z M15,18.915c-2.161,0-3.915-1.754-3.915-3.915s1.754-3.913,3.915-3.913
	c2.162,0,3.913,1.752,3.913,3.913S17.162,18.915,15,18.915z"/>
</svg>
