<?xml version="1.0" encoding="utf-8"?>
<!-- Generator: Adobe Illustrator 16.0.0, SVG Export Plug-In . SVG Version: 6.00 Build 0)  -->
<!DOCTYPE svg PUBLIC "-//W3C//DTD SVG 1.1//EN" "http://www.w3.org/Graphics/SVG/1.1/DTD/svg11.dtd">
<svg version="1.1" xmlns="http://www.w3.org/2000/svg" xmlns:xlink="http://www.w3.org/1999/xlink" x="0px" y="0px" width="30px"
	 height="30px" viewBox="0 0 30 30" enable-background="new 0 0 30 30" xml:space="preserve">
<path fill="#8F9491" d="M23.073,16.985l-2.295-2.294c-0.617-0.617-1.367-0.927-2.249-0.927c-0.897,0-1.662,0.324-2.295,0.971
	l-0.971-0.971c0.648-0.632,0.971-1.4,0.971-2.305c0-0.883-0.305-1.629-0.915-2.239l-2.272-2.283C12.438,6.313,11.688,6,10.797,6
	C9.915,6,9.169,6.306,8.559,6.916l-1.622,1.61C6.312,9.137,6,9.883,6,10.766c0,0.882,0.309,1.632,0.926,2.25L9.22,15.31
	c0.618,0.617,1.368,0.926,2.25,0.926c0.896,0,1.661-0.323,2.293-0.971l0.971,0.971c-0.646,0.633-0.971,1.401-0.971,2.306
	c0,0.883,0.306,1.628,0.916,2.239l2.271,2.282c0.611,0.625,1.36,0.938,2.25,0.938c0.883,0,1.629-0.305,2.239-0.915l1.621-1.61
	C23.688,20.864,24,20.118,24,19.235C24,18.354,23.69,17.604,23.073,16.985z M13.765,12.266c-0.022-0.022-0.091-0.092-0.204-0.21
	c-0.113-0.117-0.193-0.196-0.237-0.237c-0.044-0.04-0.114-0.096-0.21-0.165c-0.096-0.07-0.189-0.118-0.281-0.144
	s-0.192-0.039-0.303-0.039c-0.294,0-0.545,0.104-0.75,0.31c-0.206,0.205-0.309,0.455-0.309,0.75c0,0.109,0.013,0.211,0.039,0.303
	c0.025,0.092,0.072,0.186,0.143,0.281s0.125,0.166,0.166,0.21c0.04,0.044,0.119,0.123,0.236,0.237
	c0.117,0.113,0.188,0.182,0.21,0.204c-0.221,0.228-0.485,0.342-0.794,0.342c-0.302,0-0.552-0.1-0.75-0.298l-2.294-2.294
	c-0.206-0.206-0.309-0.456-0.309-0.75c0-0.287,0.103-0.533,0.309-0.739l1.621-1.61c0.214-0.198,0.464-0.298,0.75-0.298
	c0.295,0,0.545,0.103,0.75,0.309l2.272,2.283c0.206,0.206,0.31,0.456,0.31,0.75C14.129,11.769,14.007,12.037,13.765,12.266z
	 M21.573,19.975l-1.621,1.61c-0.206,0.19-0.456,0.286-0.75,0.286c-0.302,0-0.552-0.099-0.75-0.298l-2.272-2.282
	c-0.205-0.206-0.309-0.456-0.309-0.75c0-0.309,0.121-0.577,0.364-0.806c0.022,0.022,0.091,0.093,0.204,0.21
	c0.114,0.117,0.193,0.196,0.237,0.237c0.044,0.04,0.114,0.096,0.21,0.165c0.096,0.07,0.188,0.118,0.281,0.144
	c0.092,0.026,0.192,0.039,0.303,0.039c0.294,0,0.544-0.104,0.75-0.309c0.206-0.206,0.309-0.456,0.309-0.751
	c0-0.109-0.013-0.211-0.038-0.303c-0.026-0.092-0.074-0.186-0.144-0.281c-0.07-0.096-0.125-0.166-0.166-0.21
	c-0.04-0.044-0.119-0.123-0.237-0.237c-0.117-0.113-0.187-0.182-0.209-0.203c0.221-0.235,0.485-0.354,0.794-0.354
	c0.294,0,0.544,0.103,0.75,0.309l2.294,2.295c0.206,0.205,0.309,0.456,0.309,0.75C21.882,19.522,21.779,19.77,21.573,19.975z"/>
</svg>
