<?xml version="1.0" encoding="utf-8"?>
<!-- Generator: Adobe Illustrator 16.0.0, SVG Export Plug-In . SVG Version: 6.00 Build 0)  -->
<!DOCTYPE svg PUBLIC "-//W3C//DTD SVG 1.1//EN" "http://www.w3.org/Graphics/SVG/1.1/DTD/svg11.dtd">
<svg version="1.1" id="レイヤー_1" xmlns="http://www.w3.org/2000/svg" xmlns:xlink="http://www.w3.org/1999/xlink" x="0px"
	 y="0px" width="100px" height="100px" viewBox="0 0 100 100" enable-background="new 0 0 100 100" xml:space="preserve">
<circle fill="#0288D1" cx="50" cy="50" r="40"/>
<g>
	<path fill="#FFFFFF" d="M70.037,35.123H29.962c-1.54,0-2.789-1.249-2.789-2.789c0-1.541,1.249-2.79,2.789-2.79h40.075
		c1.541,0,2.79,1.249,2.79,2.79C72.827,33.874,71.578,35.123,70.037,35.123z"/>
	<path fill="#FFFFFF" d="M70.037,70.455H29.962c-1.54,0-2.789-1.249-2.789-2.789s1.249-2.79,2.789-2.79h40.075
		c1.541,0,2.79,1.25,2.79,2.79S71.578,70.455,70.037,70.455z"/>
	<path fill="#FFFFFF" d="M70.037,52.789H29.962c-1.54,0-2.789-1.249-2.789-2.789c0-1.541,1.249-2.79,2.789-2.79h40.075
		c1.541,0,2.79,1.249,2.79,2.79C72.827,51.54,71.578,52.789,70.037,52.789z"/>
</g>
</svg>
