<?xml version="1.0" encoding="utf-8"?>
<!-- Generator: Adobe Illustrator 16.0.0, SVG Export Plug-In . SVG Version: 6.00 Build 0)  -->
<!DOCTYPE svg PUBLIC "-//W3C//DTD SVG 1.1//EN" "http://www.w3.org/Graphics/SVG/1.1/DTD/svg11.dtd">
<svg version="1.1" xmlns="http://www.w3.org/2000/svg" xmlns:xlink="http://www.w3.org/1999/xlink" x="0px" y="0px" width="30px"
	 height="30px" viewBox="0 0 30 30" enable-background="new 0 0 30 30" xml:space="preserve">
<path fill="#FFFFFF" d="M6,14.438h1.688v1.125H6V14.438z"/>
<path fill="#FFFFFF" d="M8.813,14.438h1.125v1.125H8.813V14.438z"/>
<path fill="#FFFFFF" d="M11.063,14.438h1.125v1.125h-1.125V14.438z"/>
<path fill="#FFFFFF" d="M13.313,14.438h1.125v1.125h-1.125V14.438z"/>
<path fill="#FFFFFF" d="M15.563,14.438h1.125v1.125h-1.125V14.438z"/>
<path fill="#FFFFFF" d="M17.813,14.438h1.125v1.125h-1.125V14.438z"/>
<path fill="#FFFFFF" d="M20.063,14.438h1.125v1.125h-1.125V14.438z"/>
<path fill="#FFFFFF" d="M22.313,14.438H24v1.125h-1.688V14.438z"/>
<path fill="#FFFFFF" d="M19.5,12.75h-9c-0.621,0-1.125-0.503-1.125-1.125V6h11.25v5.625C20.625,12.247,20.121,12.75,19.5,12.75z"
	/>
<path fill="#FFFFFF" d="M20.625,24H9.375v-5.625c0-0.621,0.504-1.125,1.125-1.125h9c0.621,0,1.125,0.504,1.125,1.125V24z"/>
</svg>
