<?xml version="1.0" encoding="utf-8"?>
<!-- Generator: Adobe Illustrator 16.0.0, SVG Export Plug-In . SVG Version: 6.00 Build 0)  -->
<!DOCTYPE svg PUBLIC "-//W3C//DTD SVG 1.1//EN" "http://www.w3.org/Graphics/SVG/1.1/DTD/svg11.dtd">
<svg version="1.1" id="レイヤー_1" xmlns="http://www.w3.org/2000/svg" xmlns:xlink="http://www.w3.org/1999/xlink" x="0px"
	 y="0px" width="30px" height="30px" viewBox="0 0 30 30" enable-background="new 0 0 30 30" xml:space="preserve">
<g>
	<rect x="11.626" y="19.5" fill="#8F9491" width="5.624" height="1.125"/>
	<path fill="#8F9491" d="M10.501,7.125H19.5v2.25h1.125v-2.25C20.625,6.504,20.121,6,19.5,6h-8.999C9.879,6,9.376,6.504,9.376,7.125
		v2.25h1.125V7.125z"/>
	<rect x="11.626" y="17.25" fill="#8F9491" width="6.749" height="1.125"/>
	<path fill="#8F9491" d="M22.875,10.5H7.125C6.504,10.5,6,11.004,6,11.625v6.75C6,18.997,6.504,19.5,7.125,19.5h2.251v3.375
		c0,0.623,0.503,1.125,1.125,1.125H19.5c0.621,0,1.125-0.502,1.125-1.125V19.5h2.25c0.622,0,1.125-0.503,1.125-1.125v-6.75
		C24,11.004,23.497,10.5,22.875,10.5z M19.5,22.875h-8.999v-6.75H19.5V22.875L19.5,22.875z M21.75,13.875
		c-0.622,0-1.125-0.503-1.125-1.125c0-0.621,0.503-1.125,1.125-1.125s1.125,0.504,1.125,1.125
		C22.875,13.372,22.372,13.875,21.75,13.875z"/>
</g>
</svg>
