<?xml version="1.0" encoding="utf-8"?>
<!-- Generator: Adobe Illustrator 16.0.0, SVG Export Plug-In . SVG Version: 6.00 Build 0)  -->
<!DOCTYPE svg PUBLIC "-//W3C//DTD SVG 1.1//EN" "http://www.w3.org/Graphics/SVG/1.1/DTD/svg11.dtd">
<svg version="1.1" xmlns="http://www.w3.org/2000/svg" xmlns:xlink="http://www.w3.org/1999/xlink" x="0px" y="0px" width="30px"
	 height="30px" viewBox="0 0 30 30" enable-background="new 0 0 30 30" xml:space="preserve">
<path fill="#8F9491" d="M10.057,18.019c0.064-0.065,0.097-0.148,0.097-0.249s-0.032-0.184-0.097-0.249
	c-0.065-0.064-0.148-0.097-0.249-0.097H6.346c-0.101,0-0.184,0.032-0.249,0.097C6.032,17.585,6,17.668,6,17.77
	c0,0.101,0.032,0.184,0.097,0.249c0.065,0.064,0.148,0.097,0.249,0.097h3.462C9.908,18.116,9.991,18.083,10.057,18.019z"/>
<path fill="#8F9491" d="M17.769,10.154c0.102,0,0.185-0.032,0.249-0.098c0.064-0.064,0.098-0.147,0.098-0.249V6.347
	c0-0.101-0.033-0.184-0.098-0.249C17.953,6.033,17.87,6,17.769,6c-0.101,0-0.184,0.033-0.248,0.098
	c-0.065,0.065-0.098,0.148-0.098,0.249v3.461c0,0.102,0.032,0.185,0.098,0.249C17.585,10.122,17.668,10.154,17.769,10.154z"/>
<path fill="#8F9491" d="M10.5,19.154c-0.094,0-0.177,0.033-0.249,0.098l-2.77,2.769c-0.064,0.072-0.097,0.155-0.097,0.249
	s0.032,0.177,0.097,0.249c0.08,0.064,0.163,0.098,0.249,0.098c0.094,0,0.177-0.033,0.249-0.098l2.77-2.77
	c0.064-0.071,0.097-0.154,0.097-0.249c0-0.093-0.032-0.176-0.097-0.248C10.677,19.188,10.594,19.154,10.5,19.154z"/>
<path fill="#8F9491" d="M19.5,10.847c0.086,0,0.169-0.033,0.249-0.098l2.769-2.77c0.064-0.071,0.098-0.154,0.098-0.248
	s-0.033-0.177-0.098-0.249c-0.072-0.064-0.155-0.098-0.249-0.098s-0.177,0.033-0.248,0.098l-2.77,2.77
	c-0.064,0.071-0.098,0.154-0.098,0.248s0.033,0.177,0.098,0.249C19.33,10.813,19.413,10.847,19.5,10.847z"/>
<path fill="#8F9491" d="M19.283,13.313c-0.151-0.151-0.354-0.303-0.605-0.454l-0.194,2.586l2.964,2.975
	c0.201,0.202,0.303,0.447,0.303,0.735c0,0.281-0.102,0.523-0.303,0.725l-1.591,1.58c-0.195,0.194-0.439,0.29-0.735,0.286
	s-0.541-0.103-0.735-0.298l-2.953-2.963l-2.586,0.194c0.152,0.252,0.304,0.454,0.455,0.605l3.612,3.624
	c0.6,0.613,1.334,0.92,2.207,0.92c0.865,0,1.597-0.3,2.195-0.898l1.591-1.579c0.612-0.599,0.92-1.33,0.92-2.196
	c0-0.851-0.304-1.587-0.909-2.207L19.283,13.313z"/>
<path fill="#8F9491" d="M23.902,11.982c-0.064-0.064-0.147-0.098-0.249-0.098h-3.461c-0.102,0-0.185,0.033-0.249,0.098
	s-0.098,0.147-0.098,0.249c0,0.101,0.033,0.184,0.098,0.249c0.064,0.064,0.147,0.097,0.249,0.097h3.461
	c0.102,0,0.185-0.032,0.249-0.097C23.967,12.415,24,12.332,24,12.231C24,12.13,23.967,12.047,23.902,11.982z"/>
<path fill="#8F9491" d="M10.143,8.543c0.209-0.195,0.454-0.292,0.736-0.292c0.288,0,0.533,0.101,0.735,0.303l2.953,2.964
	l2.585-0.195c-0.151-0.252-0.303-0.454-0.454-0.605l-3.613-3.624c-0.599-0.612-1.334-0.919-2.206-0.919
	c-0.866,0-1.598,0.299-2.196,0.897L7.093,8.65c-0.613,0.599-0.92,1.331-0.92,2.196c0,0.851,0.303,1.587,0.909,2.207l3.634,3.635
	c0.151,0.151,0.354,0.303,0.606,0.454l0.194-2.597l-2.964-2.964c-0.202-0.201-0.303-0.447-0.303-0.735
	c0-0.281,0.101-0.522,0.303-0.725L10.143,8.543z"/>
<path fill="#8F9491" d="M12.23,19.847c-0.101,0-0.184,0.032-0.249,0.098c-0.064,0.064-0.097,0.147-0.097,0.248v3.462
	c0,0.101,0.032,0.184,0.097,0.249C12.047,23.968,12.13,24,12.23,24c0.102,0,0.184-0.032,0.249-0.097
	c0.064-0.065,0.098-0.148,0.098-0.249v-3.462c0-0.101-0.033-0.184-0.098-0.248C12.414,19.879,12.331,19.847,12.23,19.847z"/>
</svg>
