<?xml version="1.0" encoding="utf-8"?>
<!-- Generator: Adobe Illustrator 16.0.0, SVG Export Plug-In . SVG Version: 6.00 Build 0)  -->
<!DOCTYPE svg PUBLIC "-//W3C//DTD SVG 1.1//EN" "http://www.w3.org/Graphics/SVG/1.1/DTD/svg11.dtd">
<svg version="1.1" xmlns="http://www.w3.org/2000/svg" xmlns:xlink="http://www.w3.org/1999/xlink" x="0px" y="0px" width="500px"
	 height="600px" viewBox="0 0 500 600" enable-background="new 0 0 500 600" xml:space="preserve">
	<g>
		<g>
			<path fill="#FFFFFF" stroke="#65AB31" stroke-miterlimit="10" d="M103.324,402.792c-5.489-4.914-22.561-10.893-36.782-10.312
				c-14.219,0.578-26.752,7.886-29.258,13.541c10.589,0.076,15.636,11.892,17.331,24.973c0.743,5.733,1.039,22.757,18.233,23.227"/>
			<path fill="#FFFFFF" stroke="#65AB31" stroke-miterlimit="10" d="M159.974,404.495c8.186-6.48,20.488-13.408,35.476-13.408
				c6.14,0,30.357,6.034,32.404,19.104c-15.688-4.02-10.573,26.477-17.395,34.521c-6.823,8.042-14.783,10.611-19.558,10.167"/>
			<path fill="#FFFFFF" stroke="#65AB31" stroke-miterlimit="10" d="M130.216,395.244c-53.936,0.32-71.604,74.39-47.737,124.76
				c9.301,12.865,27.236,34.064,28.892,41.691c-1.459,4.187-4.679,13.019-4.679,13.019l8.646-4.956l5.58,5.267
				c0,0,1.431-8.989,3.202-12.709c3.889-2.478,5.864-20.458,6.756-26.54c0.386,0,1.859,0,2.361-0.04
				c1.317,5.504,6.233,24.819,8.855,26.58c1.375,2.274,7.467,12.709,7.467,12.709l5.453-4.648l7.278,4.959
				c0,0-2.183-10.538-3.74-13.33c0.803-7.129,16.921-25.106,26.065-39.984C207.398,472.735,182.289,394.934,130.216,395.244z"/>
			<path fill="none" stroke="#65AB31" stroke-miterlimit="10" d="M129.252,466.199c-6.877,0-20.683,3.998-21.42,17.496
				c-0.563,10.323,10.809,17.17,21.813,17.17c11.008,0,21.228-8.365,21.028-16.408C150.427,474.648,142.813,466.199,129.252,466.199
				z"/>
			<path fill="#65AB31" d="M123.06,483.491c-2.4,0.209-3.014,6.505-0.82,6.505C124.43,489.996,125.469,483.281,123.06,483.491z"/>
			<path fill="#65AB31" d="M136.032,483.7c-2.309,0.21-1.93,6.818,0.581,6.609C139.121,490.1,137.771,483.544,136.032,483.7z"/>
			<path fill="#65AB31" d="M91.166,435.122c-1.806-0.225-4.938,4.366-5.269,7.874c-0.311,3.283,3.834,4.376,4.689,2.42
				C91.444,443.463,92.973,435.35,91.166,435.122z"/>
			<path fill="#65AB31" d="M169.422,434.313c2.021-0.078,4.141,4.325,5.047,7.871c0.636,2.495-2.231,4.136-3.498,3.046
				C170.279,444.631,166.983,434.406,169.422,434.313z"/>
			<path fill="none" stroke="#65AB31" stroke-miterlimit="10" d="M113.356,457.133c1.159-1.857,9.012-6.302,15.308-6.095
				c6.301,0.207,13.039,3.409,15.027,5.681"/>
			<path fill="none" stroke="#65AB31" stroke-miterlimit="10" d="M141.168,533.593c0,0-4.65,1.757-8.681,2.064
				c-4.027,0.311-8.886-1.343-8.886-1.343"/>
			<path fill="none" stroke="#65AB31" stroke-miterlimit="10" d="M176.712,533.489c4.741,3.748,13.483,18.594,0.313,18.644
				c-10.321,0.041,0.919-12.327,6.221-2.208c2.074,3.96-0.921,9.681-5.294,10.221"/>
		</g>
		<g>
			<path fill="#FFFFFF" stroke="#65AB31" stroke-miterlimit="10" d="M174.06,510.889c-2.049-1.834-8.426-4.067-13.738-3.851
				c-5.31,0.214-9.99,2.944-10.927,5.057c3.954,0.028,5.84,4.441,6.473,9.33c0.278,2.14,0.389,8.499,6.812,8.673"/>
			<path fill="#FFFFFF" stroke="#65AB31" stroke-miterlimit="10" d="M195.218,511.524c3.058-2.42,7.653-5.007,13.251-5.007
				c2.293,0,11.339,2.254,12.104,7.137c-5.862-1.504-3.95,9.888-6.498,12.893c-2.549,3.003-5.521,3.965-7.306,3.796"/>
			<path fill="#FFFFFF" stroke="#65AB31" stroke-miterlimit="10" d="M184.104,508.07c-20.143,0.118-26.743,27.786-17.829,46.6
				c3.474,4.805,10.173,12.721,10.791,15.569c-0.545,1.565-1.746,4.863-1.746,4.863l3.228-1.853l2.084,1.969
				c0,0,0.535-3.356,1.196-4.747c1.453-0.926,2.19-7.642,2.523-9.912c0.144,0,0.694,0,0.883-0.016
				c0.491,2.055,2.327,9.27,3.307,9.928c0.513,0.851,2.789,4.747,2.789,4.747l2.037-1.736l2.719,1.853c0,0-0.817-3.938-1.398-4.979
				c0.3-2.662,6.319-9.377,9.736-14.934C212.932,537.015,203.554,507.954,184.104,508.07z"/>
			<path fill="none" stroke="#65AB31" stroke-miterlimit="10" d="M183.744,534.572c-2.568,0-7.725,1.494-7.999,6.536
				c-0.212,3.854,4.037,6.412,8.146,6.412c4.11,0,7.929-3.127,7.853-6.127C191.653,537.729,188.81,534.572,183.744,534.572z"/>
			<path fill="#65AB31" d="M181.431,541.029c-0.896,0.079-1.125,2.431-0.307,2.431C181.943,543.46,182.332,540.951,181.431,541.029z
				"/>
			<path fill="#65AB31" d="M186.277,541.108c-0.862,0.078-0.721,2.549,0.216,2.47C187.431,543.5,186.927,541.05,186.277,541.108z"/>
			<path fill="#65AB31" d="M169.52,522.967c-0.675-0.086-1.845,1.63-1.968,2.939c-0.115,1.227,1.432,1.633,1.751,0.903
				C169.623,526.08,170.193,523.05,169.52,522.967z"/>
			<path fill="#65AB31" d="M198.747,522.661c0.756-0.028,1.547,1.617,1.886,2.942c0.236,0.931-0.833,1.544-1.307,1.136
				C199.067,526.517,197.836,522.699,198.747,522.661z"/>
			<path fill="none" stroke="#65AB31" stroke-miterlimit="10" d="M177.807,531.186c0.434-0.694,3.367-2.354,5.719-2.276
				c2.352,0.076,4.869,1.274,5.612,2.122"/>
			<path fill="none" stroke="#65AB31" stroke-miterlimit="10" d="M193.742,556.701c-3.363,3.651-7.507,3.782-8.788,3.815
				c-1.51,0.035-5.673,0.797-9.275-3.384"/>
			<path fill="none" stroke="#65AB31" stroke-miterlimit="10" d="M164.726,550.554c-3.408-0.101-7.465,1.292-10.061-1.961
				c-1.218-1.526-1.001-4.169,1.359-3.578c5.088,1.271-0.069,8.684-3.646,5.147c-1.502-1.483-2.4-2.955-2.257-5.087"/>
		</g>
		<g>
			<path fill="#FFFFFF" stroke="#65AB31" stroke-miterlimit="10" d="M235.558,511.479c-2.294-1.564-8.968-2.955-14.255-2.039
				c-5.284,0.918-9.607,4.268-10.266,6.506c3.962-0.495,6.43,3.671,7.709,8.477c0.561,2.106,0.72,7.787,6.678,7.596"/>
			<path fill="#FFFFFF" stroke="#65AB31" stroke-miterlimit="10" d="M258.022,510.935c3.086-2.44,7.725-5.053,13.375-5.053
				c2.313,0,11.443,2.274,12.214,7.202c-5.915-1.517-3.985,9.98-6.557,13.012c-2.571,3.033-5.572,4-7.374,3.83"/>
			<path fill="#FFFFFF" stroke="#65AB31" stroke-miterlimit="10" d="M246.806,507.446c-20.33,0.121-26.992,28.044-17.993,47.031
				c3.505,4.851,10.266,12.843,10.889,15.717c-0.55,1.577-1.764,4.908-1.764,4.908l3.261-1.87l2.102,1.986
				c0,0,0.54-3.39,1.209-4.792c1.467-0.935,2.208-7.71,2.546-10.004c0.145,0,0.699,0,0.892-0.015
				c0.494,2.074,2.349,9.354,3.336,10.019c0.52,0.857,2.816,4.792,2.816,4.792l2.054-1.754l2.746,1.87c0,0-0.825-3.973-1.411-5.024
				c0.303-2.688,6.377-9.466,9.824-15.073C275.901,536.659,266.436,507.331,246.806,507.446z"/>
			<path fill="none" stroke="#65AB31" stroke-miterlimit="10" d="M246.667,534.222c-2.579,0.26-7.606,2.281-7.372,7.371
				c0.18,3.894,4.704,6.031,8.83,5.614c4.129-0.416,7.646-3.941,7.266-6.947C254.929,536.588,251.751,533.709,246.667,534.222z"/>
			<path fill="#65AB31" d="M244.998,540.941c-0.893,0.169-0.886,2.554-0.063,2.471C245.758,543.329,245.895,540.772,244.998,540.941
				z"/>
			<path fill="#65AB31" d="M249.871,540.527c-0.857,0.167-0.467,2.632,0.467,2.458C251.272,542.812,250.518,540.404,249.871,540.527
				z"/>
			<path fill="#65AB31" d="M233.499,523.776c-0.685-0.018-1.686,1.824-1.676,3.152c0.008,1.244,1.603,1.493,1.85,0.729
				S234.186,523.792,233.499,523.776z"/>
			<path fill="#65AB31" d="M258.229,520.973c0.757-0.105,1.719,1.467,2.192,2.761c0.334,0.914-0.681,1.636-1.198,1.274
				C258.943,524.812,257.321,521.099,258.229,520.973z"/>
			<path fill="none" stroke="#65AB31" stroke-miterlimit="10" d="M240.36,531.423c0.366-0.742,3.142-2.705,5.512-2.867
				c2.372-0.158,5.019,0.785,5.852,1.563"/>
			<path fill="none" stroke="#65AB31" stroke-miterlimit="10" d="M250.934,559.601c0,0-1.751,0.661-3.271,0.777
				c-1.519,0.118-3.351-0.505-3.351-0.505"/>
			<path fill="none" stroke="#65AB31" stroke-miterlimit="10" d="M237.05,518.855c-2.115,3.076-4.709,2.98-5.767,1.441"/>
			<path fill="none" stroke="#65AB31" stroke-miterlimit="10" d="M245.503,507.808c5.979-7.248,0.358-12.015-7.452-11.768
				c-0.537,0.937-0.727,1.593-0.575,2.789c10.372,2.498,6.721-9.33-0.908-9.181"/>
		</g>
		<path fill="#65AB31" d="M371.606,289.872c-2.273,0.459-7.054-3.183-8.189-6.826c-1.138-3.64-12.814,2.591-10.223,8.195
			c2.59,5.598,1.59,8.843,2.486,9.328"/>
		<path fill="#65AB31" d="M403.461,291.388c2.183-1.665,5.698-6.78,8.096-8.545c2.399-1.763,16.574,2.827,12.729,8.661
			c-3.844,5.84-0.72,6.761-3.49,7.39"/>
		<path fill="#65AB31" d="M333.383,516.958c-1.234,5.418-4.096,40.957-2.276,47.329c-5.461,2.73-13.652,13.917,7.283,13.329
			c20.93-0.588,22.752-3.773,21.841-12.875c-0.911-9.103,10.468-22.298,10.468-22.298"/>
		<path fill="#65AB31" d="M413.477,544.719c6.13,4.263,16.835,15.016,19.11,22.299c2.274,7.28-5.461,8.19,2.73,11.376
			c8.194,3.185,45.964,2.543,39.592-4.871c-6.369-7.416-14.109-10.601-14.109-10.601c-1.816-5.916-4.547-45.964-4.547-45.964"/>
		<path fill="#FFFFFF" stroke="#65AB31" stroke-miterlimit="10" d="M337.854,352.22c-1.744,11.834-11.876,147.371-8.567,162.919
			c4.55,21.387,34.577,36.599,61.435,35.95c40.957-0.989,63.419-18.296,66.221-30.815c6.137-27.433-12.033-141.399-20.714-151.216"
			/>
		<path fill="#65AB31" d="M337.854,340.388c-13.009,17.92-44.947,42.832-93.89,42.375c-11.102-0.1-8.007,20.479,0.898,20.839
			c54.929,2.238,94.999-15.886,102.908-19.07c7.909-3.187,32.026-4.719,41.583-4.408c9.559,0.31,31.402-0.311,35.041,2.73
			c3.64,3.043,21.39,45.012,23.666,54.29c2.273,9.276,6.188,32.021,19.931,24.289s-12.166-101.479-29.929-123.775"/>
		<path fill="#FFFFFF" stroke="#65AB31" stroke-miterlimit="10" d="M390.722,283.956c-18.658-0.441-50.97,20.024-52.789,45.51
			c-1.822,25.484,28.213,42.324,48.693,42.775c20.479,0.46,47.783-13.195,51.359-28.937
			C440.506,332.201,428.948,284.87,390.722,283.956z"/>
		<path fill="#65AB31" d="M373.314,304.892c-6.256-0.01-5.347,6.192-12.854,10.895c-4.601,2.881-7.283,11.631,0.227,12.087
			c7.508,0.457,16.853-10.806,16.838-15.245C377.509,308.505,377.41,304.899,373.314,304.892z"/>
		<path fill="#65AB31" d="M397.321,304.892c8.199,0,6.939,4.55,12.287,9.216c4.005,3.493,13.309,11.833,1.819,12.397
			c-9.229,0.463-17.453-8.264-17.788-13.422C393.563,311.901,393.672,304.892,397.321,304.892z"/>
		<path fill="#65AB31" d="M384.351,323.336c-6.107,0.79-7.511,1.81-5.007,4.081c2.503,2.275,2.276,3.641,5.007,3.641
			s2.162-2.39,4.776-3.861C390.828,326.237,387.838,322.882,384.351,323.336z"/>
		<path fill="none" stroke="#65AB31" stroke-miterlimit="10" d="M394.671,338.795c-10.156,3.64-11.164-11.374-10.957-7.737
			c0.142,2.512-0.274,11.377-8.466,8.648"/>
		<g id="left_3_">
			<path fill="none" stroke="#65AB31" stroke-linejoin="round" stroke-miterlimit="10" d="M50.065,31.835
				c0.27,1.904,1.153,5.526,3.151,5.503c1.32-0.014,2.262-4.168,2.509-6.354c-0.813-0.571-1.628-1.156-2.703-1.228
				C51.715,29.668,50.932,31.107,50.065,31.835z"/>
			<path fill="none" stroke="#65AB31" stroke-linejoin="round" stroke-miterlimit="10" d="M55.726,30.984
				c0.553,0.385,1.086,0.596,1.651,0.221c1.402-0.923,0.938-2.728-0.372-3.159c-1.487-0.487-2.034-0.992-4.129-1.14
				c-1.942-0.137-3.194,1.413-3.992,1.847c-1.388,0.762-1.372,2.551,0.102,3.278c0.403,0.197,0.749,0.078,1.08-0.197"/>
			<path fill="#65AB31" stroke="#65AB31" stroke-miterlimit="10" d="M43.636,27.977c-0.224,0.414-0.271,1.502,0.357,1.424
				c0.422-0.054,1.096-0.601,1.351-0.95c0.333-0.446,0.134-1.072-0.47-1.126C44.405,27.286,43.835,27.605,43.636,27.977z"/>
			<path fill="#65AB31" stroke="#65AB31" stroke-miterlimit="10" d="M61.196,28.297c0.215,0.486,0.502,0.838,1.126,0.737
				c0.515-0.078,0.895-0.588,0.784-1.117C62.868,26.792,60.578,26.893,61.196,28.297z"/>
			<path fill="#65AB31" stroke="#65AB31" stroke-width="0.5" stroke-miterlimit="10" d="M47.859,36.884
				c0.271,0.333,1.389-0.392,0.932-1.002C48.309,35.237,47.589,36.553,47.859,36.884z"/>
			<path fill="#65AB31" stroke="#65AB31" stroke-width="0.5" stroke-miterlimit="10" d="M56.975,36.564
				c0.23,0.268,0.689,0.376,0.843-0.045c0.101-0.284,0.03-0.805-0.159-1.027C56.908,34.612,56.447,35.953,56.975,36.564z"/>
			<path fill="#65AB31" stroke="#65AB31" stroke-width="0.5" stroke-miterlimit="10" d="M44.473,36.337
				c-0.098,0.368-0.567,1.454-0.176,1.815c0.502,0.464,1.264-0.489,1.479-0.844c0.31-0.518,0.602-1.135,0.604-1.773
				c0-0.685-0.379-1.474-1.08-0.813C44.867,35.13,44.623,35.777,44.473,36.337z"/>
			<path fill="#65AB31" stroke="#65AB31" stroke-width="0.5" stroke-miterlimit="10" d="M58.958,34.952
				c0.315,0.619,0.808,1.253,1.351,1.688c0.446,0.361,0.968,1.103,1.443,0.359c0.322-0.511,0.065-1.276-0.178-1.748
				c-0.446-0.85-1.143-1.968-2.129-2.258C58.366,32.674,58.68,34.408,58.958,34.952z"/>
			<path fill="none" stroke="#65AB31" stroke-linejoin="round" stroke-miterlimit="10" d="M58.529,78.084
				c14.898-2.58,14.263-26.3,12.44-35.406c-1.938-9.689-4.024-25.196-17.443-24.599c-8.649,0.383-15.655,9.241-15.208,25.94
				c0.406,15.169-0.662,30.831,12.663,33.795"/>
			<path fill="none" stroke="#65AB31" stroke-linejoin="round" stroke-miterlimit="10" d="M50.981,77.814
				c-0.556,7.402,2.831,32.097,4.598,32.242c1.688,0.138,2.89-27.123,2.95-31.973c-0.955,0.166-1.976,0.247-3.063,0.229
				C53.813,78.285,52.325,78.113,50.981,77.814z"/>
			<path fill="#62A334" d="M49.605,31.265c-0.075-0.185-0.424-0.947-0.65-0.467c-0.162,0.341,0.376,0.727,0.674,0.511L49.605,31.265
				z"/>
			<path fill="#62A334" d="M56.559,30.673c-0.003-0.17,0.093-0.918,0.426-0.637c0.253,0.214-0.152,0.66-0.378,0.65L56.559,30.673z"
				/>
			<path fill="none" stroke="#65AB31" stroke-linejoin="round" stroke-miterlimit="10" d="M66.539,38.332
				c-0.046,1.297-4.333,2.835-5.663,3.031c-2.493,0.366-4.311-0.462-6.568-1.058c-1.064-0.281-1.759-0.392-2.724,0.163
				c-1.091,0.631-1.877,1.217-3.185,1.545c-2.216,0.557-4.822-0.387-6.45-1.968c-0.225-0.216-0.451-0.576-0.65-0.791"/>
			
				<path fill="none" stroke="#65AB31" stroke-width="0.5" stroke-linecap="round" stroke-linejoin="round" stroke-miterlimit="10" d="
				M52.801,31.497c-0.046,1.057-0.134,2.935,0.131,3.949"/>
		</g>
		<g id="right_3_">
			<path fill="#65AB31" stroke="#65AB31" stroke-miterlimit="10" d="M79.003,24.18c-0.148,0.203-0.258,0.596-0.261,0.852
				c-0.003,0.388,0.099,0.732,0.485,0.708c0.517-0.033,1.133-0.518,1.48-0.902c0.197-0.217,0.324-0.479,0.273-0.775
				C80.794,23.004,79.312,23.761,79.003,24.18z"/>
			<path fill="#65AB31" stroke="#65AB31" stroke-miterlimit="10" d="M96.821,24.22c0.52,0.21,1.102,0.178,1.574-0.257
				c0.771-0.712-0.341-1.436-0.909-1.55C96.278,22.168,95.711,23.763,96.821,24.22z"/>
			<path fill="#65AB31" stroke="#65AB31" stroke-width="0.5" stroke-miterlimit="10" d="M84.326,32.964
				c0.506,0.57,1.354-0.632,0.843-1.111C84.62,31.333,83.959,32.548,84.326,32.964z"/>
			<path fill="#65AB31" stroke="#65AB31" stroke-width="0.5" stroke-miterlimit="10" d="M94.239,32.231
				c0.132-0.24,0.22-0.779,0.037-1.015c-0.448-0.567-1.199-0.079-1.16,0.52C93.157,32.352,93.84,32.977,94.239,32.231z"/>
			<path fill="#65AB31" stroke="#65AB31" stroke-width="0.5" stroke-miterlimit="10" d="M80.81,31.265
				c-0.268,0.402-0.949,1.766-0.437,2.185c0.437,0.358,1.832-0.823,2.137-1.137c0.392-0.401,1.025-1.35,0.606-1.899
				C82.516,29.621,81.168,30.727,80.81,31.265z"/>
			<path fill="#65AB31" stroke="#65AB31" stroke-width="0.5" stroke-miterlimit="10" d="M96.714,31.665
				c0.493,0.274,1.452,0.87,1.952,0.328c1.271-1.375-1.509-2.678-2.559-2.563C94.502,29.602,96.004,31.269,96.714,31.665z"/>
			<path fill="none" stroke="#65AB31" stroke-linejoin="round" stroke-miterlimit="10" d="M88.37,26.067
				c-1.317,0.141-1.921,1.173-2.675,1.347c0.481,1.926,2.172,5.474,3.258,5.179c1.012-0.274,2.218-3.749,2.397-5.811
				C90.277,26.82,89.426,25.953,88.37,26.067z"/>
			<path fill="none" stroke="#65AB31" stroke-linejoin="round" stroke-miterlimit="10" d="M91.351,26.782
				c0.3-0.011,0.612-0.088,0.961-0.28c1.575-0.883,1.716-2.485-0.229-3.291c-2.062-0.851-5.72-0.928-7.583,0.906
				c-1.862,1.838-0.069,3.191,0.861,3.313c0.116,0.015,0.226,0.006,0.335-0.017"/>
			<path fill="none" stroke="#65AB31" stroke-linejoin="round" stroke-miterlimit="10" d="M97.32,77.206
				c21.679-3.626,10.812-39.45,9.231-45.055c-1.642-5.815-5.519-18.938-18.638-18.34c-5.962,0.271-12.376,4.325-12.972,18.636
				c-0.545,13.094-4.461,40.911,14.054,44.643"/>
			<path fill="none" stroke="#65AB31" stroke-linejoin="round" stroke-miterlimit="10" d="M88.996,77.089
				c-0.084,4.695,3.924,33.244,5.809,32.993c1.776-0.232,3.718-26.084,2.516-32.876c-0.804,0.134-1.651,0.227-2.548,0.271
				C92.637,77.577,90.72,77.438,88.996,77.089z"/>
			<path fill="#62A334" d="M91.537,26.041c-0.093-0.019,0.053-1.108,0.486-0.964C92.506,25.235,92.029,26.141,91.537,26.041z"/>
			<path fill="#62A334" d="M84.851,26.241c-0.021-0.508,0.562-0.012,0.617,0.222C85.586,26.984,84.866,26.584,84.851,26.241z"/>
			<path fill="none" stroke="#65AB31" stroke-linejoin="round" stroke-miterlimit="10" d="M104.728,32.306
				c-2.11,5.784-9.458,5.587-14.195,3.446c-1.667-0.753-1.968,0.056-3.454,0.992c-1.091,0.687-2.367,1.226-3.646,1.346
				c-2.146,0.203-5.08-0.423-6.312-2.366"/>
			
				<path fill="none" stroke="#65AB31" stroke-width="0.5" stroke-linecap="round" stroke-linejoin="round" stroke-miterlimit="10" d="
				M88.426,27.705c0.03,0.806,0.213,1.721,0.262,3.03"/>
		</g>
		<path fill="#FFFFFF" stroke="#65AB31" stroke-miterlimit="10" d="M470.364,76.303l-0.366-1.05l0.104-0.302l-0.227-0.02
			l-0.033-0.079l-0.585,0.041c-6.975-0.234-123.417,0.348-232.211,0.91c-98.801,0.512-211.654,1.505-211.654,1.505
			c0.473,1.938,0.547,34.25,0.632,71.623c0.2,88.193,0.548,104.84,2.979,107.235c0.155,0.15,0.32,0.184,0.432,0.182
			c0.02,0.003,0.029-0.001,0.047-0.001c4.634,1.547,67.567,1.712,208.352,0.535c-0.354,26.895,0.757,91.563,2.125,127.784
			c8.088,3.258,6.116,14.767,0.973,17.126c0.276,4.023,0.549,7.5,0.814,7.967c-0.16,0.491-0.127,0.925,0.095,1.278
			c0.44,0.698,1.465,0.972,3.548,0.95c0.778-0.003,1.634-0.049,2.503-0.1c0.88-0.05,1.77-0.095,2.602-0.104
			c0.722-0.008,2.928-0.025,3.456,0.732l0.289,0.408l0.38-0.322c0.554-0.463,1.001-12.97-0.058-155.86
			c11.069-0.101,22.594-0.204,34.639-0.314c15.236-0.143,30.203-0.286,44.582-0.423c13.29-0.124,26.082-0.247,38.11-0.358
			c42.052-0.388,86.905-0.774,92.635-0.483l-0.042,0.08l4.765,0.013l0.012,0.001c0.846-0.017,1.808-0.029,1.732-51.788
			c-0.045-29.872-0.429-16.873-0.768-50.487c-0.389-38.559-0.731-72.141-0.374-76.947L470.364,76.303z"/>
	</g>
</svg>
