<?xml version="1.0" encoding="utf-8"?>
<!-- Generator: Adobe Illustrator 16.0.0, SVG Export Plug-In . SVG Version: 6.00 Build 0)  -->
<!DOCTYPE svg PUBLIC "-//W3C//DTD SVG 1.1//EN" "http://www.w3.org/Graphics/SVG/1.1/DTD/svg11.dtd">
<svg version="1.1" xmlns="http://www.w3.org/2000/svg" xmlns:xlink="http://www.w3.org/1999/xlink" x="0px" y="0px" width="500px"
	 height="600px" viewBox="0 0 500 600" enable-background="new 0 0 500 600" xml:space="preserve">
	<g>
		<g>
			<path fill="#65AB31" d="M227.936,303.917c-2.18,0.438-6.753-3.05-7.844-6.538c-1.09-3.488-12.274,2.481-9.795,7.846
				c2.484,5.363,1.526,8.473,2.384,8.936"/>
			<path fill="#65AB31" d="M258.444,305.368c2.089-1.594,5.456-6.495,7.753-8.186c2.299-1.69,15.877,2.707,12.194,8.297
				c-3.684,5.59-0.69,6.475-3.346,7.076"/>
			<path fill="#65AB31" d="M191.323,521.418c-1.18,5.188-3.923,39.229-2.18,45.33c-5.23,2.615-13.076,13.333,6.973,12.77
				c20.052-0.563,21.797-3.616,20.924-12.333c-0.872-8.717,10.023-21.357,10.023-21.357"/>
			<path fill="#65AB31" d="M268.037,548.007c5.871,4.083,16.126,14.383,18.306,21.356c2.181,6.975-5.23,7.846,2.615,10.897
				c7.847,3.053,44.021,2.434,37.922-4.667c-6.103-7.103-13.514-10.154-13.514-10.154c-1.743-5.665-4.358-44.021-4.358-44.021"/>
			<path fill="#FFFFFF" stroke="#65AB31" stroke-miterlimit="10" d="M195.605,363.633c-1.668,11.331-11.373,141.15-8.205,156.041
				c4.356,20.486,33.12,35.056,58.84,34.435c39.231-0.947,60.745-17.522,63.43-29.516c5.876-26.275-11.525-135.432-19.839-144.834"
				/>
			<path fill="#65AB31" d="M195.605,352.299c-4.72,6.104-28.69,118.938-18.23,121.799c10.462,2.86,21.205-11.724,18.23-21.214
				c-2.977-9.486,1.925-55.253,9.501-58.305c7.574-3.052,30.676-4.521,39.829-4.222c9.151,0.298,30.073-0.299,33.561,2.614
				c3.487,2.915,20.488,43.113,22.668,51.999c2.177,8.887,5.924,30.672,19.091,23.266c13.161-7.404-11.654-97.195-28.665-118.552"/>
			<path fill="#FFFFFF" stroke="#65AB31" stroke-miterlimit="10" d="M246.24,298.251c-17.868-0.424-48.813,19.178-50.56,43.588
				c-1.743,24.407,27.023,40.535,46.637,40.972c19.617,0.436,45.769-12.641,49.195-27.718
				C293.929,344.458,282.855,299.123,246.24,298.251z"/>
			<path fill="#65AB31" d="M229.569,318.3c-5.991-0.007-5.121,5.933-12.311,10.437c-4.407,2.759-6.975,11.141,0.215,11.577
				c7.192,0.436,16.144-10.351,16.129-14.603C233.589,321.764,233.493,318.308,229.569,318.3z"/>
			<path fill="#65AB31" d="M252.562,318.3c7.855,0,6.648,4.359,11.77,8.828c3.839,3.346,12.751,11.333,1.745,11.877
				c-8.839,0.437-16.714-7.918-17.037-12.857C248.966,325.015,249.072,318.3,252.562,318.3z"/>
			<path fill="#65AB31" d="M240.142,335.967c-5.851,0.758-7.192,1.729-4.797,3.91c2.398,2.18,2.181,3.485,4.797,3.485
				c2.614,0,2.07-2.287,4.577-3.696C246.345,338.749,243.481,335.534,240.142,335.967z"/>
			<path fill="none" stroke="#65AB31" stroke-miterlimit="10" d="M250.026,350.773c-9.728,3.487-10.691-10.892-10.494-7.411
				c0.136,2.403-0.263,10.898-8.11,8.283"/>
			<path fill="none" stroke="#65AB31" stroke-miterlimit="10" d="M234.771,352.102c0.016,4.084,4.381,14.761,6.63,14.761
				c2.851,0,6.139-13.427,6.167-15.556"/>
			<path fill="#FFFFFF" stroke="#65AB31" stroke-miterlimit="10" d="M227.936,370.392c3.486,6.493,16.899,11.115,27.458,0.908"/>
		</g>
		<g id="left_2_">
			<path fill="none" stroke="#65AB31" stroke-linejoin="round" stroke-miterlimit="10" d="M50.065,31.835
				c0.27,1.904,1.153,5.526,3.151,5.503c1.32-0.014,2.262-4.168,2.509-6.354c-0.813-0.571-1.628-1.156-2.703-1.228
				C51.715,29.668,50.932,31.107,50.065,31.835z"/>
			<path fill="none" stroke="#65AB31" stroke-linejoin="round" stroke-miterlimit="10" d="M55.726,30.984
				c0.553,0.385,1.086,0.596,1.651,0.221c1.402-0.923,0.938-2.728-0.372-3.159c-1.487-0.487-2.034-0.992-4.129-1.14
				c-1.942-0.137-3.194,1.413-3.992,1.847c-1.388,0.762-1.372,2.551,0.102,3.278c0.403,0.197,0.749,0.078,1.08-0.197"/>
			<path fill="#65AB31" stroke="#65AB31" stroke-miterlimit="10" d="M43.636,27.977c-0.224,0.414-0.271,1.502,0.357,1.424
				c0.422-0.054,1.096-0.601,1.351-0.95c0.333-0.446,0.134-1.072-0.47-1.126C44.405,27.286,43.835,27.605,43.636,27.977z"/>
			<path fill="#65AB31" stroke="#65AB31" stroke-miterlimit="10" d="M61.196,28.297c0.215,0.486,0.502,0.838,1.126,0.737
				c0.515-0.078,0.895-0.588,0.784-1.117C62.868,26.792,60.578,26.893,61.196,28.297z"/>
			<path fill="#65AB31" stroke="#65AB31" stroke-width="0.5" stroke-miterlimit="10" d="M47.859,36.884
				c0.271,0.333,1.389-0.392,0.932-1.002C48.309,35.237,47.589,36.553,47.859,36.884z"/>
			<path fill="#65AB31" stroke="#65AB31" stroke-width="0.5" stroke-miterlimit="10" d="M56.975,36.564
				c0.23,0.268,0.689,0.376,0.843-0.045c0.101-0.284,0.03-0.805-0.159-1.027C56.908,34.612,56.447,35.953,56.975,36.564z"/>
			<path fill="#65AB31" stroke="#65AB31" stroke-width="0.5" stroke-miterlimit="10" d="M44.473,36.337
				c-0.098,0.368-0.567,1.454-0.176,1.815c0.502,0.464,1.264-0.489,1.479-0.844c0.31-0.518,0.602-1.135,0.604-1.773
				c0-0.685-0.379-1.474-1.08-0.813C44.867,35.13,44.623,35.777,44.473,36.337z"/>
			<path fill="#65AB31" stroke="#65AB31" stroke-width="0.5" stroke-miterlimit="10" d="M58.958,34.952
				c0.315,0.619,0.808,1.253,1.351,1.688c0.446,0.361,0.968,1.103,1.443,0.359c0.322-0.511,0.065-1.276-0.178-1.748
				c-0.446-0.85-1.143-1.968-2.129-2.258C58.366,32.674,58.68,34.408,58.958,34.952z"/>
			<path fill="none" stroke="#65AB31" stroke-linejoin="round" stroke-miterlimit="10" d="M58.529,78.084
				c14.898-2.58,14.263-26.3,12.44-35.406c-1.938-9.689-4.024-25.196-17.443-24.599c-8.649,0.383-15.655,9.241-15.208,25.94
				c0.406,15.169-0.662,30.831,12.663,33.795"/>
			<path fill="none" stroke="#65AB31" stroke-linejoin="round" stroke-miterlimit="10" d="M50.981,77.814
				c-0.556,7.402,2.831,32.097,4.598,32.242c1.688,0.138,2.89-27.123,2.95-31.973c-0.955,0.166-1.976,0.247-3.063,0.229
				C53.813,78.285,52.325,78.113,50.981,77.814z"/>
			<path fill="#62A334" d="M49.605,31.265c-0.075-0.185-0.424-0.947-0.65-0.467c-0.162,0.341,0.376,0.727,0.674,0.511L49.605,31.265
				z"/>
			<path fill="#62A334" d="M56.559,30.673c-0.003-0.17,0.093-0.918,0.426-0.637c0.253,0.214-0.152,0.66-0.378,0.65L56.559,30.673z"
				/>
			<path fill="none" stroke="#65AB31" stroke-linejoin="round" stroke-miterlimit="10" d="M66.539,38.332
				c-0.046,1.297-4.333,2.835-5.663,3.031c-2.493,0.366-4.311-0.462-6.568-1.058c-1.064-0.281-1.759-0.392-2.724,0.163
				c-1.091,0.631-1.877,1.217-3.185,1.545c-2.216,0.557-4.822-0.387-6.45-1.968c-0.225-0.216-0.451-0.576-0.65-0.791"/>
			
				<path fill="none" stroke="#65AB31" stroke-width="0.5" stroke-linecap="round" stroke-linejoin="round" stroke-miterlimit="10" d="
				M52.801,31.497c-0.046,1.057-0.134,2.935,0.131,3.949"/>
		</g>
		<g id="right_2_">
			<path fill="#65AB31" stroke="#65AB31" stroke-miterlimit="10" d="M79.003,24.18c-0.148,0.203-0.258,0.596-0.261,0.852
				c-0.003,0.388,0.099,0.732,0.485,0.708c0.517-0.033,1.133-0.518,1.48-0.902c0.197-0.217,0.324-0.479,0.273-0.775
				C80.794,23.004,79.312,23.761,79.003,24.18z"/>
			<path fill="#65AB31" stroke="#65AB31" stroke-miterlimit="10" d="M96.821,24.22c0.52,0.21,1.102,0.178,1.574-0.257
				c0.771-0.712-0.341-1.436-0.909-1.55C96.278,22.168,95.711,23.763,96.821,24.22z"/>
			<path fill="#65AB31" stroke="#65AB31" stroke-width="0.5" stroke-miterlimit="10" d="M84.326,32.964
				c0.506,0.57,1.354-0.632,0.843-1.111C84.62,31.333,83.959,32.548,84.326,32.964z"/>
			<path fill="#65AB31" stroke="#65AB31" stroke-width="0.5" stroke-miterlimit="10" d="M94.239,32.231
				c0.132-0.24,0.22-0.779,0.037-1.015c-0.448-0.567-1.199-0.079-1.16,0.52C93.157,32.352,93.84,32.977,94.239,32.231z"/>
			<path fill="#65AB31" stroke="#65AB31" stroke-width="0.5" stroke-miterlimit="10" d="M80.81,31.265
				c-0.268,0.402-0.949,1.766-0.437,2.185c0.437,0.358,1.832-0.823,2.137-1.137c0.392-0.401,1.025-1.35,0.606-1.899
				C82.516,29.621,81.168,30.727,80.81,31.265z"/>
			<path fill="#65AB31" stroke="#65AB31" stroke-width="0.5" stroke-miterlimit="10" d="M96.714,31.665
				c0.493,0.274,1.452,0.87,1.952,0.328c1.271-1.375-1.509-2.678-2.559-2.563C94.502,29.602,96.004,31.269,96.714,31.665z"/>
			<path fill="none" stroke="#65AB31" stroke-linejoin="round" stroke-miterlimit="10" d="M88.37,26.067
				c-1.317,0.141-1.921,1.173-2.675,1.347c0.481,1.926,2.172,5.474,3.258,5.179c1.012-0.274,2.218-3.749,2.397-5.811
				C90.277,26.82,89.426,25.953,88.37,26.067z"/>
			<path fill="none" stroke="#65AB31" stroke-linejoin="round" stroke-miterlimit="10" d="M91.351,26.782
				c0.3-0.011,0.612-0.088,0.961-0.28c1.575-0.883,1.716-2.485-0.229-3.291c-2.062-0.851-5.72-0.928-7.583,0.906
				c-1.862,1.838-0.069,3.191,0.861,3.313c0.116,0.015,0.226,0.006,0.335-0.017"/>
			<path fill="none" stroke="#65AB31" stroke-linejoin="round" stroke-miterlimit="10" d="M97.32,77.206
				c21.679-3.626,10.812-39.45,9.231-45.055c-1.642-5.815-5.519-18.938-18.638-18.34c-5.962,0.271-12.376,4.325-12.972,18.636
				c-0.545,13.094-4.461,40.911,14.054,44.643"/>
			<path fill="none" stroke="#65AB31" stroke-linejoin="round" stroke-miterlimit="10" d="M88.996,77.089
				c-0.084,4.695,3.924,33.244,5.809,32.993c1.776-0.232,3.718-26.084,2.516-32.876c-0.804,0.134-1.651,0.227-2.548,0.271
				C92.637,77.577,90.72,77.438,88.996,77.089z"/>
			<path fill="#62A334" d="M91.537,26.041c-0.093-0.019,0.053-1.108,0.486-0.964C92.506,25.235,92.029,26.141,91.537,26.041z"/>
			<path fill="#62A334" d="M84.851,26.241c-0.021-0.508,0.562-0.012,0.617,0.222C85.586,26.984,84.866,26.584,84.851,26.241z"/>
			<path fill="none" stroke="#65AB31" stroke-linejoin="round" stroke-miterlimit="10" d="M104.728,32.306
				c-2.11,5.784-9.458,5.587-14.195,3.446c-1.667-0.753-1.968,0.056-3.454,0.992c-1.091,0.687-2.367,1.226-3.646,1.346
				c-2.146,0.203-5.08-0.423-6.312-2.366"/>
			
				<path fill="none" stroke="#65AB31" stroke-width="0.5" stroke-linecap="round" stroke-linejoin="round" stroke-miterlimit="10" d="
				M88.426,27.705c0.03,0.806,0.213,1.721,0.262,3.03"/>
		</g>
		<path fill="#FFFFFF" stroke="#65AB31" stroke-miterlimit="10" d="M469.26,230.255c0,13.807-11.192,25-25,25H257.056l-19.501,25
			l-18.499-25H50.392c-13.807,0-25-11.193-25-25V102.307c0-13.807,11.193-25,25-25H444.26c13.808,0,25,11.193,25,25V230.255z"/>
	</g>
</svg>
