<?xml version="1.0" encoding="utf-8"?>
<!-- Generator: Adobe Illustrator 16.0.0, SVG Export Plug-In . SVG Version: 6.00 Build 0)  -->
<!DOCTYPE svg PUBLIC "-//W3C//DTD SVG 1.1//EN" "http://www.w3.org/Graphics/SVG/1.1/DTD/svg11.dtd">
<svg version="1.1" xmlns="http://www.w3.org/2000/svg" xmlns:xlink="http://www.w3.org/1999/xlink" x="0px" y="0px" width="500px"
	 height="600px" viewBox="0 0 500 600" enable-background="new 0 0 500 600" xml:space="preserve">
	<g>
		<g>
			<path fill="#FFFFFF" stroke="#65AB31" stroke-miterlimit="10" d="M279.167,359.765c7.104-6.36,38.562-3.097,47.342,21.572
				c8.83,24.806,1.533,29.968-9.199,46.832"/>
			<path fill="#FFFFFF" stroke="#65AB31" stroke-miterlimit="10" d="M227.13,299.236c-2.652-2.375-10.906-5.267-17.783-4.984
				c-6.871,0.276-12.932,3.812-14.145,6.546c5.12,0.036,7.561,5.749,8.379,12.077c0.359,2.77,0.504,11.001,8.815,11.226"/>
			<path fill="#FFFFFF" stroke="#65AB31" stroke-miterlimit="10" d="M254.519,300.06c3.957-3.134,9.905-6.481,17.152-6.481
				c2.968,0,14.677,2.917,15.669,9.239c-7.589-1.948-5.114,12.797-8.412,16.688c-3.299,3.887-7.146,5.132-9.457,4.914"/>
			<path fill="#FFFFFF" stroke="#65AB31" stroke-miterlimit="10" d="M240.131,295.587c-24.971,0.148-33.85,32.996-24.421,57.167
				c0,0,5.085-1.672,24.389-1.672c19.303,0,27.958,1.672,27.958,1.672C276.037,328.956,263.899,295.446,240.131,295.587z"/>
			<path fill="none" stroke="#65AB31" stroke-miterlimit="10" d="M214.966,345.33c-4.085-1.671-9.636-1.826-11.301-6.948
				c-0.782-2.403,0.68-5.507,3.273-3.72c5.59,3.854-4.031,10.494-6.759,4.583c-1.147-2.48-1.566-4.673-0.422-7.191"/>
			<path fill="#FFFFFF" stroke="#65AB31" stroke-miterlimit="10" d="M205.767,358.093c-7.104-6.36-38.562-3.097-47.342,21.572
				c-8.829,24.806-1.531,29.966,9.199,46.831"/>
			<path fill="#FFFFFF" stroke="#65AB31" stroke-miterlimit="10" d="M240.577,348.322c-69.816,0.416-92.688,96.295-61.793,161.494
				c12.039,16.654,35.254,44.098,37.399,53.968c-1.889,5.419-6.058,16.852-6.058,16.852l11.19-6.415l7.223,6.817
				c0,0,1.854-11.635,4.146-16.45c5.033-3.209,7.591-26.482,8.745-34.354c0.499,0,2.406,0,3.057-0.053
				c1.705,7.124,8.067,32.127,11.461,34.407c1.781,2.943,9.668,16.45,9.668,16.45l7.058-6.017l9.422,6.418
				c0,0-2.826-13.641-4.843-17.253c1.04-9.229,21.904-32.501,33.741-51.759C340.485,448.632,307.982,347.92,240.577,348.322z"/>
			<path fill="none" stroke="#65AB31" stroke-miterlimit="10" d="M254.755,527.408c0,0-6.022,2.273-11.237,2.673
				s-11.501-1.739-11.501-1.739"/>
			<path fill="none" stroke="#65AB31" stroke-miterlimit="10" d="M300.764,527.273c6.138,4.851,17.453,24.068,0.404,24.133
				c-13.358,0.055,1.19-15.956,8.054-2.857c2.683,5.125-1.194,12.53-6.855,13.229"/>
			<path fill="#FFFFFF" stroke="#65AB31" stroke-miterlimit="10" d="M217.73,347.664c-3.479-2.638-12.744-2.196-9.137,5.858
				c-0.609,1.439-0.945,6.688-0.945,6.688l3.466-2.819l3.251,1.954l2.968-6.592c0,0,7.154-2.707,22.626-2.707
				c15.47,0,24.866,2.707,24.866,2.707l2.966,6.592l3.251-1.954l3.467,2.819c0,0-0.335-5.249-0.946-6.688
				c3.608-8.055-5.658-8.496-9.134-5.858"/>
			<path fill="none" stroke="#65AB31" stroke-miterlimit="10" d="M291.386,474.578c-14.215-1.674-34.285,10.034-32.611,38.048"/>
			<g>
				<path fill="#65AB31" d="M221.68,310.706c-0.875-0.109-2.385,2.111-2.547,3.806c-0.149,1.587,1.854,2.116,2.268,1.17
					C221.815,314.736,222.554,310.814,221.68,310.706z"/>
				<path fill="#65AB31" d="M256.169,310.314c0.979-0.035,2.004,2.091,2.44,3.806c0.308,1.205-1.078,2-1.691,1.472
					C256.586,315.302,254.991,310.359,256.169,310.314z"/>
				<g>
					<path fill="#FFFFFF" stroke="#65AB31" stroke-miterlimit="10" d="M246.092,319.733c-2.66,3.084-2.524,10.006-2.418,12.419
						c0.487,11.185-8.604,10.681-9.031,0.097c-0.101-2.503-0.563-9.336-3.063-11.647"/>
					<path fill="none" stroke="#65AB31" stroke-miterlimit="10" d="M238.285,304.961c-3.432,0-10.324,1.995-10.692,8.734
						c-0.281,5.152,5.396,8.571,10.889,8.571c5.495,0,10.6-4.177,10.498-8.191C248.856,309.178,245.055,304.961,238.285,304.961z"/>
					<path fill="#65AB31" d="M235.193,309.724c-1.197,0.104-1.502,3.246-0.409,3.246
						C235.879,312.97,236.398,309.618,235.193,309.724z"/>
					<path fill="#65AB31" d="M241.026,309.828c-1.154,0.104-0.963,3.403,0.29,3.299
						C242.568,313.022,241.895,309.751,241.026,309.828z"/>
				</g>
			</g>
			<path fill="#FFFFFF" stroke="#65AB31" stroke-miterlimit="10" d="M292.343,496.555c-2.969-2.026-9.491-8.179-17.645,3.946
				c-3.875,5.762-3.187,22.889,4.525,22.641"/>
			<path fill="#FFFFFF" stroke="#65AB31" stroke-miterlimit="10" d="M320.732,498.64c3.996-3.161,9.998-6.544,17.311-6.544
				c2.997,0,14.813,2.946,15.813,9.324c-7.655-1.964-5.162,12.919-8.49,16.844c-3.329,3.925-7.213,5.18-9.541,4.96"/>
			<path fill="#FFFFFF" stroke="#65AB31" stroke-miterlimit="10" d="M306.213,494.125c-26.318,0.154-34.938,36.298-23.292,60.879
				c4.535,6.275,13.29,16.62,14.098,20.342c-0.713,2.041-2.283,6.353-2.283,6.353l4.217-2.42l2.725,2.57c0,0,0.699-4.387,1.561-6.2
				c1.898-1.21,2.861-9.982,3.296-12.95c0.189,0,0.908,0,1.154-0.021c0.644,2.685,3.04,12.11,4.321,12.972
				c0.67,1.107,3.643,6.2,3.643,6.2l2.661-2.269l3.552,2.42c0,0-1.065-5.142-1.825-6.502c0.392-3.48,8.256-12.251,12.719-19.513
				C343.874,531.938,331.623,493.973,306.213,494.125z"/>
			<path fill="#65AB31" d="M288.989,508.57c-0.89-0.021-2.181,2.36-2.173,4.078c0.013,1.611,2.078,1.938,2.396,0.949
				C289.533,512.605,289.878,508.593,288.989,508.57z"/>
			<path fill="#65AB31" d="M321.001,504.94c0.98-0.133,2.224,1.899,2.837,3.573c0.43,1.183-0.881,2.118-1.549,1.651
				C321.923,509.91,319.823,505.107,321.001,504.94z"/>
			<path fill="none" stroke="#65AB31" stroke-miterlimit="10" d="M311.558,561.634c0,0-2.271,0.857-4.234,1.008
				c-1.968,0.15-4.336-0.658-4.336-0.658"/>
			<path fill="none" stroke="#65AB31" stroke-miterlimit="10" d="M293.581,502.203c-2.734,3.979-6.091,3.855-7.46,1.864"/>
			<path fill="none" stroke="#65AB31" stroke-miterlimit="10" d="M304.528,494.589c7.735-9.38,0.462-15.552-9.647-15.232
				c-0.694,1.213-0.941,2.063-0.744,3.61c13.422,3.236,8.7-12.072-1.177-11.884"/>
			<g>
				<path fill="#FFFFFF" stroke="#65AB31" stroke-miterlimit="10" d="M313.766,518.021c-2.538,3.183-1.948,10.093-1.751,12.499
					c0.913,11.157-8.189,11.002-9.021,0.441c-0.194-2.5-1.11-9.305-3.697-11.52"/>
				<path fill="none" stroke="#65AB31" stroke-miterlimit="10" d="M305.402,503.558c-3.431,0.13-10.24,2.388-10.353,9.137
					c-0.085,5.158,5.72,8.357,11.208,8.149c5.494-0.21,10.433-4.578,10.178-8.586C316.124,507.366,312.167,503.299,305.402,503.558z
					"/>
				<path fill="#65AB31" d="M302.493,508.436c-1.192,0.149-1.377,3.302-0.285,3.259
					C303.302,511.654,303.692,508.284,302.493,508.436z"/>
				<path fill="#65AB31" d="M308.324,508.316c-1.147,0.149-0.831,3.438,0.416,3.284C309.988,511.45,309.189,508.206,308.324,508.316
					z"/>
			</g>
			<path fill="#FFFFFF" stroke="#65AB31" stroke-miterlimit="10" d="M281.647,498.201c-0.625,2.508-0.679,16.308,0.995,17.771
				c-2.091,1.254-8.99,4.81-11.081,2.508c-2.091-2.299,0.366-19.075,8.257-23.465"/>
			<path fill="#65AB31" d="M138.464,306.422c-1.539-0.108-2.684-0.212-3.819-0.339c-0.497,2.813-0.946,5.451-1.396,8.137
				c-0.316-0.25-0.575-0.456-0.95-0.753c0.235-2.406,0.52-4.896,0.882-7.613c-0.729-0.062-1.195-0.106-1.829-0.177
				c-0.35-0.964-0.725-1.911-1.186-2.984c1.113,0.038,2.241,0.05,3.313,0.038c0.357-2.431,0.744-4.707,1.165-6.929
				c-0.751-0.014-1.509,0.077-2.094-0.101c-0.359-0.11-0.514-0.611-0.65-0.94c-0.202-0.486-0.305-0.976-0.441-1.462
				c1.305-0.141,2.412-0.279,3.767-0.472c0.507-2.415,1.094-4.92,1.765-7.426c0.619-0.127,1.055-0.215,1.676-0.345
				c-0.498,2.302-0.99,4.676-1.489,7.181c1.646-0.023,2.981-0.283,4.331-0.923c0.479-2.906,0.884-5.817,1.208-8.75
				c0.317-0.164,0.559-0.289,1.071-0.565c-0.059,2.949-0.574,5.89-0.937,8.956c0.946-0.206,1.819-0.403,2.785-0.638
				c0.369,1.132,0.706,2.228,1.021,3.351c-1.52,0.366-2.97,0.671-4.39,0.938c-0.526,2.865-1.103,5.524-1.778,8.242
				c0.938-0.021,1.829-0.053,2.767-0.098c0.164,0.985,0.314,2.07,0.417,3.213c-1.105,1.156-2.93-0.154-4.294,0.956
				c-0.526,1.858-1.19,4.044-1.929,6.233c-0.321-0.19-0.501-0.297-0.761-0.445C137.279,310.765,137.836,308.822,138.464,306.422z
				 M136.679,295.577c-0.479,2.478-0.924,4.855-1.381,7.362c1.355,0.025,2.591,0.02,3.958-0.01c0.526-2.638,1.304-5.258,1.563-8.034
				C139.318,295.178,138.051,295.382,136.679,295.577z"/>
			<path fill="none" stroke="#65AB31" stroke-miterlimit="10" d="M333.06,483.358c1.997-11.006,4.532-18.201,17.022-16.208
				c3.742,0.599,23.349,7.201,14.753-5.534"/>
			<path fill="#65AB31" d="M371.738,450.243c-0.017-0.052-0.032-0.103-0.052-0.156l-2.805-8.947l-0.003-0.016l-0.48-1.526h-0.003
				l-0.515-1.63l-10.815,4.125l1.027,2.47l3.125,8.653c-0.864-0.405-1.96-0.505-3.062-0.197c-2.104,0.589-3.431,2.439-2.955,4.137
				c0.474,1.696,2.565,2.595,4.671,2.006c2.106-0.587,3.429-2.438,2.955-4.135l0,0c-0.018-0.066-0.038-0.13-0.063-0.192
				l-2.273-6.966l7.939-4.121l1.694,4.688c-0.864-0.406-1.96-0.506-3.058-0.197c-2.108,0.587-3.431,2.438-2.956,4.135
				c0.472,1.696,2.564,2.597,4.671,2.009C370.886,453.792,372.21,451.94,371.738,450.243z M360.042,446.493l-0.754-2.31l8.346-2.648
				l0.377,1.046L360.042,446.493z"/>
			<path fill="none" stroke="#65AB31" stroke-miterlimit="10" d="M199.82,323.358c-6.924-7.197-20.945,1.346-30.272-2.849
				c-8.829-3.97-10.259-16.755-19.903-17.779"/>
			<path fill="none" stroke="#65AB31" stroke-miterlimit="10" d="M241.04,440.732c-8.9,0-26.772,5.173-27.726,22.647
				c-0.729,13.363,11.592,22.278,29.988,22.278c13.381,0,13.485-10.767,20.07-17.353
				C272.682,458.999,258.595,440.732,241.04,440.732z"/>
			<path fill="#65AB31" d="M233.023,463.115c-3.106,0.27-3.898,8.421-1.061,8.421C234.799,471.536,236.145,462.844,233.023,463.115z
				"/>
			<path fill="#65AB31" d="M246.349,463.462c-2.691-1.33-4.154,7.421-2.335,7.728c0.759,0.128,1.949-4.013,3.036-5.462
				C247.595,465,246.786,463.68,246.349,463.462z"/>
			<path fill="#65AB31" d="M191.741,400.504c-2.338-0.291-6.392,5.651-6.82,10.192c-0.4,4.249,4.964,5.662,6.07,3.132
				C192.102,411.301,194.079,400.799,191.741,400.504z"/>
			<path fill="#65AB31" d="M293.037,399.456c2.617-0.103,5.361,5.599,6.534,10.189c0.823,3.229-2.889,5.353-4.526,3.94
				C294.147,412.813,289.883,399.576,293.037,399.456z"/>
			<path fill="none" stroke="#65AB31" stroke-miterlimit="10" d="M220.465,428.995c1.502-2.404,11.665-8.156,19.816-7.889
				c8.155,0.267,16.876,4.413,19.451,7.354"/>
			<path fill="none" stroke="#65AB31" stroke-miterlimit="10" d="M304.349,391.374c-12.507,1.057-26.671-3.107-31.776-14.217"/>
			<path fill="#FFFFFF" stroke="#65AB31" stroke-miterlimit="10" d="M176.284,376.11c-0.628,2.51-4.062,28.851-2.284,35.855
				c-3.868,0.104-16.968-0.384-18.606-8.363c-3.458-16.849,5.924-32.647,13.015-38.468"/>
			<path fill="#FFFFFF" stroke="#65AB31" stroke-miterlimit="10" d="M308.65,377.784c0.627,2.508,4.061,28.849,2.283,35.854
				c3.868,0.104,16.969-0.384,18.606-8.363c3.46-16.849-5.924-32.647-13.015-38.466"/>
		</g>
		<g id="left_5_">
			<path fill="none" stroke="#65AB31" stroke-linejoin="round" stroke-miterlimit="10" d="M51.065,31.835
				c0.27,1.904,1.153,5.526,3.151,5.503c1.32-0.014,2.262-4.168,2.509-6.354c-0.813-0.571-1.628-1.156-2.703-1.228
				C52.715,29.668,51.932,31.107,51.065,31.835z"/>
			<path fill="none" stroke="#65AB31" stroke-linejoin="round" stroke-miterlimit="10" d="M56.726,30.984
				c0.553,0.385,1.086,0.596,1.651,0.221c1.402-0.923,0.938-2.728-0.372-3.159c-1.487-0.487-2.034-0.992-4.129-1.14
				c-1.942-0.137-3.194,1.413-3.992,1.847c-1.388,0.762-1.372,2.551,0.102,3.278c0.403,0.197,0.749,0.078,1.08-0.197"/>
			<path fill="#65AB31" stroke="#65AB31" stroke-miterlimit="10" d="M44.636,27.977c-0.224,0.414-0.271,1.502,0.357,1.424
				c0.422-0.054,1.096-0.601,1.351-0.95c0.333-0.446,0.134-1.072-0.47-1.126C45.405,27.286,44.835,27.605,44.636,27.977z"/>
			<path fill="#65AB31" stroke="#65AB31" stroke-miterlimit="10" d="M62.196,28.297c0.215,0.486,0.502,0.838,1.126,0.737
				c0.515-0.078,0.895-0.588,0.784-1.117C63.868,26.792,61.578,26.893,62.196,28.297z"/>
			<path fill="#65AB31" stroke="#65AB31" stroke-width="0.5" stroke-miterlimit="10" d="M48.859,36.884
				c0.271,0.333,1.389-0.392,0.932-1.002C49.309,35.237,48.589,36.553,48.859,36.884z"/>
			<path fill="#65AB31" stroke="#65AB31" stroke-width="0.5" stroke-miterlimit="10" d="M57.975,36.564
				c0.23,0.268,0.689,0.376,0.843-0.045c0.101-0.284,0.03-0.805-0.159-1.027C57.908,34.612,57.447,35.953,57.975,36.564z"/>
			<path fill="#65AB31" stroke="#65AB31" stroke-width="0.5" stroke-miterlimit="10" d="M45.473,36.337
				c-0.098,0.368-0.567,1.454-0.176,1.815c0.502,0.464,1.264-0.489,1.479-0.844c0.31-0.518,0.602-1.135,0.604-1.773
				c0-0.685-0.379-1.474-1.08-0.813C45.867,35.13,45.623,35.777,45.473,36.337z"/>
			<path fill="#65AB31" stroke="#65AB31" stroke-width="0.5" stroke-miterlimit="10" d="M59.958,34.952
				c0.315,0.619,0.808,1.253,1.351,1.688c0.446,0.361,0.968,1.103,1.443,0.359c0.322-0.511,0.065-1.276-0.178-1.748
				c-0.446-0.85-1.143-1.968-2.129-2.258C59.366,32.674,59.68,34.408,59.958,34.952z"/>
			<path fill="none" stroke="#65AB31" stroke-linejoin="round" stroke-miterlimit="10" d="M59.529,78.084
				c14.898-2.58,14.263-26.3,12.44-35.406c-1.938-9.689-4.024-25.196-17.443-24.599c-8.649,0.383-15.655,9.241-15.208,25.94
				c0.406,15.169-0.662,30.831,12.663,33.795"/>
			<path fill="none" stroke="#65AB31" stroke-linejoin="round" stroke-miterlimit="10" d="M51.981,77.814
				c-0.556,7.402,2.831,32.097,4.598,32.242c1.688,0.138,2.89-27.123,2.95-31.973c-0.955,0.166-1.976,0.247-3.063,0.229
				C54.813,78.285,53.325,78.113,51.981,77.814z"/>
			<path fill="#62A334" d="M50.605,31.265c-0.075-0.185-0.424-0.947-0.65-0.467c-0.162,0.341,0.376,0.727,0.674,0.511L50.605,31.265
				z"/>
			<path fill="#62A334" d="M57.559,30.673c-0.003-0.17,0.093-0.918,0.426-0.637c0.253,0.214-0.152,0.66-0.378,0.65L57.559,30.673z"
				/>
			<path fill="none" stroke="#65AB31" stroke-linejoin="round" stroke-miterlimit="10" d="M67.539,38.332
				c-0.046,1.297-4.333,2.835-5.663,3.031c-2.493,0.366-4.311-0.462-6.568-1.058c-1.064-0.281-1.759-0.392-2.724,0.163
				c-1.091,0.631-1.877,1.217-3.185,1.545c-2.216,0.557-4.822-0.387-6.45-1.968c-0.225-0.216-0.451-0.576-0.65-0.791"/>
			
				<path fill="none" stroke="#65AB31" stroke-width="0.5" stroke-linecap="round" stroke-linejoin="round" stroke-miterlimit="10" d="
				M53.801,31.497c-0.046,1.057-0.134,2.935,0.131,3.949"/>
		</g>
		<g id="right_5_">
			<path fill="#65AB31" stroke="#65AB31" stroke-miterlimit="10" d="M80.003,24.18c-0.148,0.203-0.258,0.596-0.261,0.852
				c-0.003,0.388,0.099,0.732,0.485,0.708c0.517-0.033,1.133-0.518,1.48-0.902c0.197-0.217,0.324-0.479,0.273-0.775
				C81.794,23.004,80.312,23.761,80.003,24.18z"/>
			<path fill="#65AB31" stroke="#65AB31" stroke-miterlimit="10" d="M97.821,24.22c0.52,0.21,1.102,0.178,1.574-0.257
				c0.771-0.712-0.341-1.436-0.909-1.55C97.278,22.168,96.711,23.763,97.821,24.22z"/>
			<path fill="#65AB31" stroke="#65AB31" stroke-width="0.5" stroke-miterlimit="10" d="M85.326,32.964
				c0.506,0.57,1.354-0.632,0.843-1.111C85.62,31.333,84.959,32.548,85.326,32.964z"/>
			<path fill="#65AB31" stroke="#65AB31" stroke-width="0.5" stroke-miterlimit="10" d="M95.239,32.231
				c0.132-0.24,0.22-0.779,0.037-1.015c-0.448-0.567-1.199-0.079-1.16,0.52C94.157,32.352,94.84,32.977,95.239,32.231z"/>
			<path fill="#65AB31" stroke="#65AB31" stroke-width="0.5" stroke-miterlimit="10" d="M81.81,31.265
				c-0.268,0.402-0.949,1.766-0.437,2.185c0.437,0.358,1.832-0.823,2.137-1.137c0.392-0.401,1.025-1.35,0.606-1.899
				C83.516,29.621,82.168,30.727,81.81,31.265z"/>
			<path fill="#65AB31" stroke="#65AB31" stroke-width="0.5" stroke-miterlimit="10" d="M97.714,31.665
				c0.493,0.274,1.452,0.87,1.952,0.328c1.271-1.375-1.509-2.678-2.559-2.563C95.502,29.602,97.004,31.269,97.714,31.665z"/>
			<path fill="none" stroke="#65AB31" stroke-linejoin="round" stroke-miterlimit="10" d="M89.37,26.067
				c-1.317,0.141-1.921,1.173-2.675,1.347c0.481,1.926,2.172,5.474,3.258,5.179c1.012-0.274,2.218-3.749,2.397-5.811
				C91.277,26.82,90.426,25.953,89.37,26.067z"/>
			<path fill="none" stroke="#65AB31" stroke-linejoin="round" stroke-miterlimit="10" d="M92.351,26.782
				c0.3-0.011,0.612-0.088,0.961-0.28c1.575-0.883,1.716-2.485-0.229-3.291c-2.062-0.851-5.72-0.928-7.583,0.906
				c-1.862,1.838-0.069,3.191,0.861,3.313c0.116,0.015,0.226,0.006,0.335-0.017"/>
			<path fill="none" stroke="#65AB31" stroke-linejoin="round" stroke-miterlimit="10" d="M98.32,77.206
				c21.679-3.626,10.812-39.45,9.231-45.055c-1.642-5.815-5.519-18.938-18.638-18.34c-5.962,0.271-12.376,4.325-12.972,18.636
				c-0.545,13.094-4.461,40.911,14.054,44.643"/>
			<path fill="none" stroke="#65AB31" stroke-linejoin="round" stroke-miterlimit="10" d="M89.996,77.089
				c-0.084,4.695,3.924,33.244,5.809,32.993c1.776-0.232,3.718-26.084,2.516-32.876c-0.804,0.134-1.651,0.227-2.548,0.271
				C93.637,77.577,91.72,77.438,89.996,77.089z"/>
			<path fill="#62A334" d="M92.537,26.041c-0.093-0.019,0.053-1.108,0.486-0.964C93.506,25.235,93.029,26.141,92.537,26.041z"/>
			<path fill="#62A334" d="M85.851,26.241c-0.021-0.508,0.562-0.012,0.617,0.222C86.586,26.984,85.866,26.584,85.851,26.241z"/>
			<path fill="none" stroke="#65AB31" stroke-linejoin="round" stroke-miterlimit="10" d="M105.728,32.306
				c-2.11,5.784-9.458,5.587-14.195,3.446c-1.667-0.753-1.968,0.056-3.454,0.992c-1.091,0.687-2.367,1.226-3.646,1.346
				c-2.146,0.203-5.08-0.423-6.312-2.366"/>
			
				<path fill="none" stroke="#65AB31" stroke-width="0.5" stroke-linecap="round" stroke-linejoin="round" stroke-miterlimit="10" d="
				M89.426,27.705c0.03,0.806,0.213,1.721,0.262,3.03"/>
		</g>
		<path fill="#FFFFFF" stroke="#65AB31" stroke-miterlimit="10" d="M470.26,230.255c0,13.807-11.192,25-25,25H258.056l-19.501,25
			l-18.499-25H51.392c-13.807,0-25-11.193-25-25V102.307c0-13.807,11.193-25,25-25H445.26c13.808,0,25,11.193,25,25V230.255z"/>
	</g>
</svg>
